<?xml version="1.0" encoding="UTF-8"?>
<!DOCTYPE svg PUBLIC "-//W3C//DTD SVG 1.1//EN" "http://www.w3.org/Graphics/SVG/1.1/DTD/svg11.dtd">
<!-- Creator: CorelDRAW 2018 (64 Bit) -->
<svg xmlns="http://www.w3.org/2000/svg" xml:space="preserve" width="221px" height="258px" version="1.1" style="shape-rendering:geometricPrecision; text-rendering:geometricPrecision; image-rendering:optimizeQuality; fill-rule:evenodd; clip-rule:evenodd"
viewBox="0 0 46.77 54.75"
 xmlns:xlink="http://www.w3.org/1999/xlink">
 <defs>
  <style type="text/css">
   <![CDATA[
    .fil0 {fill:white}
    .fil2 {fill:black;fill-rule:nonzero}
    .fil3 {fill:#ABA942;fill-rule:nonzero}
    .fil1 {fill:#ABA942;fill-rule:nonzero}
   ]]>
  </style>
 </defs>
 <g id="Capa_x0020_1">
  <metadata id="CorelCorpID_0Corel-Layer"/>
  <path class="fil0" d="M0 0l46.77 0c0,49.04 0.59,55.48 -46.77,54.69l0 -54.69z"/>
  <g id="_1724141360">
   <path class="fil1" d="M6.14 44.14l0 -1 0.67 0 0 0.12 -0.54 0 0 0.31 0.47 0 0 0.12 -0.47 0 0 0.45 -0.13 0zm0.66 0l0.38 -1 0.15 0 0.41 1 -0.15 0 -0.12 -0.3 -0.42 0 -0.11 0.3 -0.14 0zm0.29 -0.41l0.34 0 -0.1 -0.28c-0.04,-0.08 -0.06,-0.15 -0.08,-0.21 -0.01,0.07 -0.03,0.13 -0.05,0.2l-0.11 0.29zm1.47 0.06l0.13 0.04c-0.03,0.1 -0.08,0.19 -0.15,0.24 -0.07,0.06 -0.16,0.09 -0.26,0.09 -0.11,0 -0.2,-0.02 -0.27,-0.07 -0.06,-0.04 -0.12,-0.1 -0.15,-0.19 -0.04,-0.08 -0.05,-0.17 -0.05,-0.27 0,-0.1 0.02,-0.19 0.06,-0.27 0.04,-0.08 0.09,-0.14 0.17,-0.18 0.07,-0.04 0.15,-0.06 0.24,-0.06 0.1,0 0.18,0.03 0.25,0.08 0.07,0.05 0.12,0.12 0.14,0.22l-0.13 0.03c-0.02,-0.08 -0.05,-0.13 -0.1,-0.16 -0.04,-0.04 -0.1,-0.05 -0.16,-0.05 -0.08,0 -0.15,0.02 -0.2,0.05 -0.05,0.04 -0.08,0.09 -0.11,0.15 -0.02,0.06 -0.03,0.13 -0.03,0.19 0,0.09 0.02,0.16 0.04,0.23 0.02,0.06 0.06,0.11 0.12,0.14 0.05,0.03 0.1,0.05 0.17,0.05 0.07,0 0.13,-0.02 0.18,-0.07 0.05,-0.04 0.09,-0.1 0.11,-0.19zm0.95 -0.65l0.13 0 0 0.58c0,0.1 -0.01,0.18 -0.03,0.24 -0.02,0.06 -0.06,0.11 -0.12,0.14 -0.06,0.04 -0.14,0.06 -0.24,0.06 -0.09,0 -0.17,-0.02 -0.23,-0.05 -0.06,-0.03 -0.1,-0.08 -0.12,-0.14 -0.03,-0.06 -0.04,-0.14 -0.04,-0.25l0 -0.58 0.13 0 0 0.58c0,0.09 0.01,0.15 0.02,0.19 0.02,0.04 0.05,0.08 0.09,0.1 0.04,0.02 0.09,0.03 0.14,0.03 0.1,0 0.17,-0.02 0.21,-0.07 0.04,-0.04 0.06,-0.12 0.06,-0.25l0 -0.58zm0.35 1l0 -1 0.13 0 0 0.89 0.5 0 0 0.11 -0.63 0zm0.94 0l0 -0.88 -0.33 0 0 -0.12 0.79 0 0 0.12 -0.33 0 0 0.88 -0.13 0zm0.38 0l0.39 -1 0.14 0 0.41 1 -0.15 0 -0.12 -0.3 -0.42 0 -0.11 0.3 -0.14 0zm0.29 -0.41l0.34 0 -0.1 -0.28c-0.03,-0.08 -0.06,-0.15 -0.07,-0.21 -0.02,0.07 -0.04,0.13 -0.06,0.2l-0.11 0.29zm0.76 0.41l0 -1 0.34 0c0.08,0 0.14,0.01 0.18,0.01 0.06,0.02 0.11,0.04 0.15,0.08 0.05,0.04 0.09,0.1 0.12,0.17 0.02,0.07 0.04,0.15 0.04,0.24 0,0.07 -0.01,0.14 -0.03,0.2 -0.02,0.06 -0.04,0.11 -0.07,0.15 -0.03,0.03 -0.06,0.06 -0.09,0.09 -0.03,0.02 -0.07,0.03 -0.12,0.05 -0.05,0.01 -0.1,0.01 -0.16,0.01l-0.36 0zm0.13 -0.11l0.21 0c0.07,0 0.12,-0.01 0.16,-0.02 0.04,-0.02 0.07,-0.03 0.09,-0.05 0.03,-0.04 0.05,-0.08 0.07,-0.13 0.02,-0.06 0.03,-0.12 0.03,-0.2 0,-0.1 -0.02,-0.18 -0.05,-0.24 -0.04,-0.05 -0.08,-0.09 -0.13,-0.11 -0.03,-0.01 -0.09,-0.02 -0.17,-0.02l-0.21 0 0 0.77zm1.27 0.11l0 -1 0.34 0c0.08,0 0.14,0.01 0.18,0.01 0.06,0.02 0.11,0.04 0.15,0.08 0.05,0.04 0.09,0.1 0.12,0.17 0.02,0.07 0.04,0.15 0.04,0.24 0,0.07 -0.01,0.14 -0.03,0.2 -0.02,0.06 -0.04,0.11 -0.07,0.15 -0.03,0.03 -0.06,0.06 -0.09,0.09 -0.03,0.02 -0.07,0.03 -0.12,0.05 -0.05,0.01 -0.1,0.01 -0.16,0.01l-0.36 0zm0.13 -0.11l0.21 0c0.07,0 0.12,-0.01 0.16,-0.02 0.04,-0.02 0.07,-0.03 0.09,-0.05 0.03,-0.04 0.05,-0.08 0.07,-0.13 0.02,-0.06 0.03,-0.12 0.03,-0.2 0,-0.1 -0.02,-0.18 -0.05,-0.24 -0.04,-0.05 -0.08,-0.09 -0.13,-0.11 -0.03,-0.01 -0.09,-0.02 -0.17,-0.02l-0.21 0 0 0.77zm0.88 0.11l0 -1 0.72 0 0 0.12 -0.59 0 0 0.31 0.56 0 0 0.11 -0.56 0 0 0.35 0.62 0 0 0.11 -0.75 0zm2.04 -0.35l0.13 0.04c-0.03,0.1 -0.08,0.19 -0.15,0.24 -0.07,0.06 -0.16,0.09 -0.27,0.09 -0.1,0 -0.19,-0.02 -0.26,-0.07 -0.07,-0.04 -0.12,-0.1 -0.15,-0.19 -0.04,-0.08 -0.06,-0.17 -0.06,-0.27 0,-0.1 0.02,-0.19 0.06,-0.27 0.04,-0.08 0.1,-0.14 0.17,-0.18 0.08,-0.04 0.16,-0.06 0.25,-0.06 0.1,0 0.18,0.03 0.25,0.08 0.07,0.05 0.11,0.12 0.14,0.22l-0.13 0.03c-0.02,-0.08 -0.06,-0.13 -0.1,-0.16 -0.04,-0.04 -0.1,-0.05 -0.17,-0.05 -0.07,0 -0.14,0.02 -0.19,0.05 -0.05,0.04 -0.09,0.09 -0.11,0.15 -0.02,0.06 -0.03,0.13 -0.03,0.19 0,0.09 0.01,0.16 0.04,0.23 0.02,0.06 0.06,0.11 0.11,0.14 0.06,0.03 0.11,0.05 0.17,0.05 0.08,0 0.14,-0.02 0.19,-0.07 0.05,-0.04 0.09,-0.1 0.11,-0.19zm0.31 0.35l0 -1 0.14 0 0 1 -0.14 0zm0.37 0l0 -1 0.73 0 0 0.12 -0.59 0 0 0.31 0.55 0 0 0.11 -0.55 0 0 0.35 0.61 0 0 0.11 -0.75 0zm0.93 0l0 -1 0.14 0 0.53 0.79 0 -0.79 0.12 0 0 1 -0.13 0 -0.53 -0.78 0 0.78 -0.13 0zm1.73 -0.35l0.13 0.04c-0.02,0.1 -0.07,0.19 -0.15,0.24 -0.07,0.06 -0.16,0.09 -0.26,0.09 -0.11,0 -0.2,-0.02 -0.26,-0.07 -0.07,-0.04 -0.12,-0.1 -0.16,-0.19 -0.03,-0.08 -0.05,-0.17 -0.05,-0.27 0,-0.1 0.02,-0.19 0.06,-0.27 0.04,-0.08 0.1,-0.14 0.17,-0.18 0.07,-0.04 0.15,-0.06 0.24,-0.06 0.1,0 0.19,0.03 0.25,0.08 0.07,0.05 0.12,0.12 0.15,0.22l-0.13 0.03c-0.03,-0.08 -0.06,-0.13 -0.1,-0.16 -0.05,-0.04 -0.1,-0.05 -0.17,-0.05 -0.08,0 -0.14,0.02 -0.19,0.05 -0.06,0.04 -0.09,0.09 -0.11,0.15 -0.02,0.06 -0.03,0.13 -0.03,0.19 0,0.09 0.01,0.16 0.03,0.23 0.03,0.06 0.07,0.11 0.12,0.14 0.05,0.03 0.11,0.05 0.17,0.05 0.07,0 0.14,-0.02 0.19,-0.07 0.05,-0.04 0.08,-0.1 0.1,-0.19zm0.32 0.35l0 -1 0.13 0 0 1 -0.13 0zm0.26 0l0.38 -1 0.15 0 0.41 1 -0.16 0 -0.11 -0.3 -0.42 0 -0.11 0.3 -0.14 0zm0.29 -0.41l0.34 0 -0.11 -0.28c-0.03,-0.08 -0.05,-0.15 -0.07,-0.21 -0.01,0.07 -0.03,0.13 -0.05,0.2l-0.11 0.29zm0.71 0.09l0.12 -0.01c0.01,0.05 0.02,0.09 0.04,0.12 0.03,0.04 0.06,0.06 0.1,0.08 0.05,0.02 0.1,0.03 0.16,0.03 0.05,0 0.09,-0.01 0.13,-0.02 0.04,-0.02 0.07,-0.04 0.09,-0.06 0.02,-0.03 0.03,-0.06 0.03,-0.09 0,-0.03 -0.01,-0.06 -0.03,-0.08 -0.02,-0.02 -0.05,-0.04 -0.09,-0.06 -0.03,-0.01 -0.09,-0.03 -0.18,-0.05 -0.09,-0.02 -0.16,-0.04 -0.19,-0.06 -0.05,-0.03 -0.09,-0.06 -0.11,-0.09 -0.02,-0.04 -0.03,-0.08 -0.03,-0.13 0,-0.05 0.01,-0.1 0.04,-0.14 0.03,-0.05 0.07,-0.08 0.12,-0.1 0.06,-0.02 0.12,-0.04 0.19,-0.04 0.07,0 0.14,0.02 0.19,0.04 0.06,0.02 0.11,0.06 0.14,0.11 0.03,0.04 0.04,0.09 0.05,0.15l-0.13 0.01c-0.01,-0.06 -0.03,-0.11 -0.07,-0.14 -0.04,-0.03 -0.1,-0.05 -0.18,-0.05 -0.08,0 -0.14,0.02 -0.17,0.05 -0.04,0.02 -0.06,0.06 -0.06,0.1 0,0.04 0.02,0.07 0.04,0.09 0.03,0.02 0.09,0.05 0.2,0.07 0.11,0.03 0.18,0.05 0.22,0.07 0.06,0.02 0.11,0.06 0.13,0.1 0.03,0.04 0.04,0.09 0.04,0.14 0,0.05 -0.01,0.1 -0.04,0.15 -0.03,0.05 -0.08,0.08 -0.13,0.11 -0.06,0.03 -0.12,0.04 -0.2,0.04 -0.09,0 -0.16,-0.01 -0.22,-0.04 -0.06,-0.03 -0.11,-0.07 -0.15,-0.12 -0.03,-0.05 -0.05,-0.11 -0.05,-0.18zm1.36 0.32l0 -1 0.14 0 0.53 0.79 0 -0.79 0.12 0 0 1 -0.13 0 -0.53 -0.78 0 0.78 -0.13 0zm0.91 0l0.38 -1 0.15 0 0.4 1 -0.15 0 -0.11 -0.3 -0.43 0 -0.1 0.3 -0.14 0zm0.28 -0.41l0.35 0 -0.11 -0.28c-0.03,-0.08 -0.05,-0.15 -0.07,-0.21 -0.01,0.07 -0.03,0.13 -0.06,0.2l-0.11 0.29zm0.91 0.41l0 -0.88 -0.33 0 0 -0.12 0.79 0 0 0.12 -0.33 0 0 0.88 -0.13 0zm1.26 -1l0.13 0 0 0.58c0,0.1 -0.01,0.18 -0.03,0.24 -0.03,0.06 -0.07,0.11 -0.13,0.14 -0.06,0.04 -0.13,0.06 -0.23,0.06 -0.09,0 -0.17,-0.02 -0.23,-0.05 -0.06,-0.03 -0.1,-0.08 -0.13,-0.14 -0.02,-0.06 -0.04,-0.14 -0.04,-0.25l0 -0.58 0.14 0 0 0.58c0,0.09 0,0.15 0.02,0.19 0.02,0.04 0.04,0.08 0.08,0.1 0.04,0.02 0.09,0.03 0.15,0.03 0.1,0 0.16,-0.02 0.21,-0.07 0.04,-0.04 0.06,-0.12 0.06,-0.25l0 -0.58zm0.36 1l0 -1 0.44 0c0.09,0 0.16,0.01 0.2,0.03 0.05,0.02 0.09,0.05 0.11,0.09 0.03,0.05 0.05,0.1 0.05,0.15 0,0.08 -0.03,0.13 -0.07,0.18 -0.05,0.05 -0.12,0.08 -0.22,0.1 0.04,0.01 0.07,0.03 0.08,0.05 0.04,0.03 0.08,0.08 0.11,0.13l0.18 0.27 -0.17 0 -0.13 -0.21c-0.04,-0.06 -0.07,-0.1 -0.1,-0.13 -0.02,-0.04 -0.04,-0.06 -0.06,-0.07 -0.02,-0.01 -0.04,-0.02 -0.06,-0.03 -0.02,0 -0.04,0 -0.08,0l-0.15 0 0 0.44 -0.13 0zm0.13 -0.56l0.28 0c0.06,0 0.11,0 0.14,-0.02 0.04,-0.01 0.06,-0.03 0.08,-0.06 0.02,-0.02 0.03,-0.05 0.03,-0.09 0,-0.04 -0.02,-0.08 -0.05,-0.11 -0.04,-0.03 -0.09,-0.05 -0.17,-0.05l-0.31 0 0 0.33zm0.76 0.56l0.39 -1 0.14 0 0.41 1 -0.15 0 -0.11 -0.3 -0.43 0 -0.11 0.3 -0.14 0zm0.29 -0.41l0.34 0 -0.1 -0.28c-0.03,-0.08 -0.06,-0.15 -0.07,-0.21 -0.02,0.07 -0.03,0.13 -0.06,0.2l-0.11 0.29zm0.75 0.41l0 -1 0.14 0 0 0.89 0.49 0 0 0.11 -0.63 0zm0.79 0l0 -1 0.72 0 0 0.12 -0.59 0 0 0.31 0.56 0 0 0.11 -0.56 0 0 0.35 0.62 0 0 0.11 -0.75 0zm0.89 -0.32l0.12 -0.01c0.01,0.05 0.02,0.09 0.04,0.12 0.02,0.04 0.06,0.06 0.1,0.08 0.05,0.02 0.1,0.03 0.16,0.03 0.05,0 0.09,-0.01 0.13,-0.02 0.04,-0.02 0.07,-0.04 0.09,-0.06 0.02,-0.03 0.03,-0.06 0.03,-0.09 0,-0.03 -0.01,-0.06 -0.03,-0.08 -0.02,-0.02 -0.05,-0.04 -0.09,-0.06 -0.03,-0.01 -0.09,-0.03 -0.18,-0.05 -0.09,-0.02 -0.16,-0.04 -0.19,-0.06 -0.05,-0.03 -0.09,-0.06 -0.11,-0.09 -0.02,-0.04 -0.04,-0.08 -0.04,-0.13 0,-0.05 0.02,-0.1 0.05,-0.14 0.03,-0.05 0.07,-0.08 0.12,-0.1 0.06,-0.02 0.12,-0.04 0.19,-0.04 0.07,0 0.14,0.02 0.19,0.04 0.06,0.02 0.1,0.06 0.14,0.11 0.03,0.04 0.04,0.09 0.04,0.15l-0.12 0.01c-0.01,-0.06 -0.03,-0.11 -0.07,-0.14 -0.04,-0.03 -0.1,-0.05 -0.18,-0.05 -0.08,0 -0.14,0.02 -0.17,0.05 -0.04,0.02 -0.06,0.06 -0.06,0.1 0,0.04 0.02,0.07 0.04,0.09 0.03,0.02 0.09,0.05 0.2,0.07 0.11,0.03 0.18,0.05 0.22,0.07 0.06,0.02 0.1,0.06 0.13,0.1 0.03,0.04 0.04,0.09 0.04,0.14 0,0.05 -0.01,0.1 -0.04,0.15 -0.03,0.05 -0.08,0.08 -0.13,0.11 -0.06,0.03 -0.12,0.04 -0.2,0.04 -0.09,0 -0.16,-0.01 -0.22,-0.04 -0.07,-0.03 -0.11,-0.07 -0.15,-0.12 -0.03,-0.05 -0.05,-0.11 -0.05,-0.18zm1.62 0.32l0 -0.42 -0.39 -0.58 0.16 0 0.2 0.3c0.04,0.06 0.07,0.12 0.1,0.17 0.04,-0.05 0.07,-0.11 0.12,-0.17l0.19 -0.3 0.15 0 -0.4 0.58 0 0.42 -0.13 0zm1.01 0l0 -1 0.2 0 0.24 0.71c0.02,0.07 0.04,0.12 0.05,0.15 0.01,-0.04 0.03,-0.09 0.05,-0.16l0.24 -0.7 0.18 0 0 1 -0.13 0 0 -0.84 -0.29 0.84 -0.12 0 -0.29 -0.85 0 0.85 -0.13 0zm1.83 -1l0.13 0 0 0.58c0,0.1 -0.01,0.18 -0.03,0.24 -0.02,0.06 -0.07,0.11 -0.12,0.14 -0.06,0.04 -0.14,0.06 -0.24,0.06 -0.09,0 -0.17,-0.02 -0.23,-0.05 -0.06,-0.03 -0.1,-0.08 -0.13,-0.14 -0.02,-0.06 -0.03,-0.14 -0.03,-0.25l0 -0.58 0.13 0 0 0.58c0,0.09 0.01,0.15 0.02,0.19 0.02,0.04 0.05,0.08 0.09,0.1 0.04,0.02 0.08,0.03 0.14,0.03 0.1,0 0.17,-0.02 0.21,-0.07 0.04,-0.04 0.06,-0.12 0.06,-0.25l0 -0.58zm0.31 0.68l0.13 -0.01c0,0.05 0.02,0.09 0.04,0.12 0.02,0.04 0.05,0.06 0.1,0.08 0.04,0.02 0.09,0.03 0.15,0.03 0.05,0 0.1,-0.01 0.14,-0.02 0.03,-0.02 0.06,-0.04 0.08,-0.06 0.02,-0.03 0.03,-0.06 0.03,-0.09 0,-0.03 -0.01,-0.06 -0.03,-0.08 -0.02,-0.02 -0.05,-0.04 -0.09,-0.06 -0.02,-0.01 -0.08,-0.03 -0.18,-0.05 -0.09,-0.02 -0.15,-0.04 -0.19,-0.06 -0.05,-0.03 -0.08,-0.06 -0.11,-0.09 -0.02,-0.04 -0.03,-0.08 -0.03,-0.13 0,-0.05 0.01,-0.1 0.04,-0.14 0.03,-0.05 0.07,-0.08 0.13,-0.1 0.05,-0.02 0.11,-0.04 0.18,-0.04 0.08,0 0.14,0.02 0.2,0.04 0.05,0.02 0.1,0.06 0.13,0.11 0.03,0.04 0.05,0.09 0.05,0.15l-0.13 0.01c-0.01,-0.06 -0.03,-0.11 -0.07,-0.14 -0.04,-0.03 -0.1,-0.05 -0.17,-0.05 -0.08,0 -0.14,0.02 -0.18,0.05 -0.04,0.02 -0.05,0.06 -0.05,0.1 0,0.04 0.01,0.07 0.03,0.09 0.03,0.02 0.1,0.05 0.2,0.07 0.11,0.03 0.19,0.05 0.23,0.07 0.05,0.02 0.1,0.06 0.13,0.1 0.02,0.04 0.04,0.09 0.04,0.14 0,0.05 -0.02,0.1 -0.05,0.15 -0.03,0.05 -0.07,0.08 -0.13,0.11 -0.06,0.03 -0.12,0.04 -0.19,0.04 -0.09,0 -0.17,-0.01 -0.23,-0.04 -0.06,-0.03 -0.11,-0.07 -0.14,-0.12 -0.04,-0.05 -0.06,-0.11 -0.06,-0.18zm0.98 0.32l0 -1 0.72 0 0 0.12 -0.59 0 0 0.31 0.56 0 0 0.11 -0.56 0 0 0.35 0.62 0 0 0.11 -0.75 0zm0.89 -0.48c0,-0.17 0.05,-0.3 0.14,-0.4 0.09,-0.09 0.2,-0.14 0.34,-0.14 0.09,0 0.18,0.03 0.25,0.07 0.08,0.04 0.13,0.11 0.17,0.19 0.04,0.07 0.06,0.16 0.06,0.26 0,0.11 -0.02,0.2 -0.06,0.28 -0.04,0.08 -0.1,0.14 -0.18,0.18 -0.07,0.04 -0.15,0.06 -0.24,0.06 -0.09,0 -0.18,-0.02 -0.25,-0.07 -0.08,-0.04 -0.13,-0.11 -0.17,-0.18 -0.04,-0.08 -0.06,-0.17 -0.06,-0.25zm0.14 0c0,0.12 0.03,0.21 0.1,0.28 0.06,0.07 0.14,0.11 0.24,0.11 0.1,0 0.18,-0.04 0.25,-0.11 0.06,-0.07 0.09,-0.17 0.09,-0.3 0,-0.08 -0.01,-0.15 -0.04,-0.21 -0.03,-0.06 -0.07,-0.11 -0.12,-0.14 -0.05,-0.03 -0.11,-0.05 -0.18,-0.05 -0.09,0 -0.17,0.03 -0.24,0.1 -0.07,0.06 -0.1,0.17 -0.1,0.32z"/>
   <g>
    <path class="fil2" d="M6.07 7.88l6.78 0c-3.89,1.76 -6.6,5.67 -6.6,10.21 0,3.51 2.01,6.57 4.94,8.07l-5.15 0 0 0.99 31.8 0 0 -0.99 -15.19 0 0 -17.18c4,1.77 6.93,5.51 7.56,9.98l1 0c-0.39,-3.02 -1.76,-5.82 -3.95,-8.01 -1.35,-1.35 -2.93,-2.38 -4.65,-3.07l15.27 0 -0.01 -0.99 -31.8 0 0 0.99zm9.24 18.28c-0.88,0 -1.73,-0.14 -2.52,-0.4l0 -4.42c0.73,0.84 1.81,1.37 3.01,1.37 1.82,0 3.3,-1.48 3.3,-3.3 0,-1.51 -1.23,-2.74 -2.74,-2.74 -1.26,0 -2.29,1.03 -2.29,2.29l0.99 0c0,-0.72 0.58,-1.3 1.3,-1.3 0.97,0 1.75,0.78 1.75,1.75 0,1.27 -1.04,2.31 -2.31,2.31 -1.66,0 -3.01,-1.35 -3.01,-3.01 0,-2.15 1.74,-3.9 3.89,-3.9 2.75,0 4.98,2.24 4.98,4.99 0,3.51 -2.85,6.36 -6.35,6.36zm6.35 -17.57l0 7.92c-1.07,-1.61 -2.9,-2.68 -4.98,-2.68l-8.51 0c1.62,-3.51 5.17,-5.95 9.28,-5.95 1.47,0 2.89,0.25 4.21,0.71z"/>
    <path class="fil3" d="M21.66 26.16l-2.68 0c1.11,-0.64 2.04,-1.57 2.68,-2.68l0 2.68z"/>
    <path class="fil3" d="M7.24 18.09c0,-1.15 0.18,-2.25 0.53,-3.28l5.97 0c-1.18,0.9 -1.94,2.31 -1.94,3.9l0 6.65c-2.7,-1.31 -4.56,-4.08 -4.56,-7.27z"/>
    <path class="fil2" d="M8.83 36.47l-1.58 -5.14 -0.04 0c0.06,1.05 0.09,1.74 0.09,2.09l0 3.05 -1.25 0 0 -6.55 1.9 0 1.55 5.01 0.03 0 1.64 -5.01 1.89 0 0 6.55 -1.29 0 0 -3.1c0,-0.15 0,-0.32 0,-0.51 0.01,-0.19 0.03,-0.7 0.06,-1.52l-0.04 0 -1.69 5.13 -1.27 0zm11.22 -6.55l0 4.24c0,0.48 -0.11,0.91 -0.33,1.27 -0.22,0.37 -0.53,0.65 -0.94,0.84 -0.41,0.2 -0.89,0.29 -1.45,0.29 -0.84,0 -1.5,-0.21 -1.96,-0.65 -0.47,-0.43 -0.7,-1.02 -0.7,-1.77l0 -4.22 1.38 0 0 4.01c0,0.51 0.1,0.88 0.31,1.11 0.2,0.24 0.54,0.36 1.01,0.36 0.45,0 0.78,-0.12 0.98,-0.36 0.21,-0.24 0.31,-0.61 0.31,-1.12l0 -4 1.39 0zm5.47 4.73c0,0.6 -0.21,1.06 -0.64,1.4 -0.42,0.34 -1.02,0.51 -1.78,0.51 -0.7,0 -1.32,-0.13 -1.85,-0.39l0 -1.29c0.44,0.19 0.81,0.33 1.12,0.41 0.31,0.09 0.59,0.13 0.84,0.13 0.31,0 0.54,-0.06 0.7,-0.18 0.17,-0.11 0.25,-0.29 0.25,-0.52 0,-0.13 -0.04,-0.24 -0.11,-0.34 -0.07,-0.1 -0.18,-0.2 -0.32,-0.29 -0.14,-0.09 -0.42,-0.24 -0.85,-0.44 -0.4,-0.19 -0.7,-0.37 -0.9,-0.55 -0.2,-0.17 -0.36,-0.37 -0.48,-0.6 -0.12,-0.23 -0.18,-0.5 -0.18,-0.81 0,-0.58 0.2,-1.04 0.59,-1.37 0.4,-0.33 0.94,-0.5 1.63,-0.5 0.34,0 0.67,0.04 0.98,0.13 0.31,0.08 0.63,0.19 0.97,0.34l-0.45 1.08c-0.35,-0.15 -0.64,-0.25 -0.87,-0.3 -0.23,-0.06 -0.45,-0.09 -0.67,-0.09 -0.27,0 -0.47,0.06 -0.61,0.19 -0.14,0.12 -0.21,0.28 -0.21,0.48 0,0.12 0.03,0.23 0.09,0.32 0.05,0.09 0.14,0.17 0.27,0.26 0.12,0.09 0.42,0.24 0.88,0.46 0.61,0.29 1.03,0.59 1.26,0.88 0.23,0.3 0.34,0.66 0.34,1.08zm4.96 1.82l-3.77 0 0 -6.55 3.77 0 0 1.14 -2.38 0 0 1.44 2.21 0 0 1.13 -2.21 0 0 1.69 2.38 0 0 1.15zm7.32 -3.28c0,1.08 -0.27,1.92 -0.81,2.5 -0.54,0.58 -1.31,0.87 -2.31,0.87 -1.01,0 -1.78,-0.29 -2.32,-0.87 -0.53,-0.58 -0.8,-1.42 -0.8,-2.51 0,-1.09 0.27,-1.93 0.81,-2.5 0.54,-0.58 1.31,-0.86 2.32,-0.86 1,0 1.77,0.28 2.31,0.86 0.53,0.58 0.8,1.42 0.8,2.51zm-4.79 0c0,0.73 0.14,1.28 0.42,1.65 0.28,0.37 0.69,0.56 1.25,0.56 1.11,0 1.66,-0.74 1.66,-2.21 0,-1.48 -0.55,-2.22 -1.65,-2.22 -0.56,0 -0.97,0.19 -1.26,0.56 -0.28,0.37 -0.42,0.93 -0.42,1.66z"/>
    <path class="fil2" d="M9.26 39.79c0,0.66 -0.18,1.17 -0.54,1.52 -0.36,0.35 -0.88,0.53 -1.55,0.53l-1.12 0 0 -4.02 1.23 0c0.63,0 1.11,0.18 1.46,0.52 0.34,0.35 0.52,0.83 0.52,1.45zm-0.5 0.02c0,-0.53 -0.13,-0.92 -0.39,-1.18 -0.26,-0.27 -0.65,-0.4 -1.17,-0.4l-0.68 0 0 3.2 0.57 0c0.56,0 0.97,-0.14 1.25,-0.41 0.28,-0.27 0.42,-0.68 0.42,-1.21zm3.63 2.03l-2.24 0 0 -4.02 2.24 0 0 0.42 -1.77 0 0 1.29 1.66 0 0 0.41 -1.66 0 0 1.48 1.77 0 0 0.42zm2.35 0l0 -4.02 0.47 0 0 3.59 1.77 0 0 0.43 -2.24 0zm5.44 0l-0.5 -1.28 -1.61 0 -0.49 1.28 -0.47 0 1.58 -4.04 0.4 0 1.58 4.04 -0.49 0zm-0.64 -1.7l-0.47 -1.25c-0.06,-0.15 -0.12,-0.35 -0.19,-0.57 -0.04,0.17 -0.09,0.36 -0.17,0.57l-0.47 1.25 1.3 0zm5.68 -1.15c0,0.41 -0.14,0.72 -0.41,0.94 -0.28,0.22 -0.68,0.33 -1.19,0.33l-0.47 0 0 1.58 -0.47 0 0 -4.02 1.04 0c1,0 1.5,0.39 1.5,1.17zm-2.07 0.87l0.41 0c0.42,0 0.72,-0.07 0.9,-0.2 0.19,-0.14 0.28,-0.35 0.28,-0.65 0,-0.26 -0.09,-0.46 -0.26,-0.59 -0.17,-0.13 -0.45,-0.19 -0.81,-0.19l-0.52 0 0 1.63zm2.91 1.98l0 -4.02 0.47 0 0 3.59 1.77 0 0 0.43 -2.24 0zm5.45 0l-0.5 -1.28 -1.61 0 -0.5 1.28 -0.47 0 1.59 -4.04 0.39 0 1.58 4.04 -0.48 0zm-0.65 -1.7l-0.47 -1.25c-0.06,-0.15 -0.12,-0.35 -0.18,-0.57 -0.04,0.17 -0.1,0.36 -0.18,0.57l-0.47 1.25 1.3 0zm2.52 1.7l-0.46 0 0 -3.6 -1.28 0 0 -0.42 3.01 0 0 0.42 -1.27 0 0 3.6zm4.01 0l-0.5 -1.28 -1.61 0 -0.5 1.28 -0.47 0 1.59 -4.04 0.39 0 1.58 4.04 -0.48 0zm-0.65 -1.7l-0.46 -1.25c-0.06,-0.15 -0.13,-0.35 -0.19,-0.57 -0.04,0.17 -0.1,0.36 -0.17,0.57l-0.48 1.25 1.3 0z"/>
   </g>
  </g>
 </g>
</svg>
